<svg id="f6a7a9f1-bace-41db-b51e-945665ea3c0f" data-name="Layer 1" xmlns="http://www.w3.org/2000/svg" viewBox="0 0 834.27 834.27"><title>davdinci</title><path d="M417.48.31h0v4h0c228.17,0,413.13,185,413.13,413.13s-185,413.14-413.13,413.14S4.35,645.61,4.35,417.44,189.31,4.31,417.48,4.31v-4C187.1.31.35,187.07.35,417.44S187.1,834.58,417.48,834.58,834.61,647.82,834.61,417.44,647.86.31,417.48.31Z" transform="translate(-0.35 -0.31)" style="fill:#fff"/><polygon points="417.13 136.96 417.13 140.96 759.05 140.96 759.05 830.22 69.79 830.22 69.79 140.96 417.13 140.96 417.13 136.96 65.79 136.96 65.79 834.22 763.05 834.22 763.05 136.96 417.13 136.96" style="fill:#fff"/></svg>